<svg xmlns="http://www.w3.org/2000/svg" xmlns:xlink="http://www.w3.org/1999/xlink" width="683" height="768" viewBox="0 0 683 768"><defs><linearGradient id="a" y1="1" x2="1" gradientUnits="objectBoundingBox"><stop offset="0" stop-color="#5c6ccd"/><stop offset="1" stop-color="#5753b5"/></linearGradient><linearGradient id="b" x1="0.897" y1="0.14" x2="0.206" y2="0.877" gradientUnits="objectBoundingBox"><stop offset="0" stop-color="#672bd2"/><stop offset="1" stop-color="#530795"/></linearGradient><clipPath id="c"><rect width="683" height="768" fill="url(#a)"/></clipPath><linearGradient id="d" x1="0.5" x2="0.5" y2="1" gradientUnits="objectBoundingBox"><stop offset="0" stop-color="#a7a7ff"/><stop offset="1" stop-color="#fff" stop-opacity="0"/></linearGradient><linearGradient id="f" x1="0.5" x2="0.5" y2="1" gradientUnits="objectBoundingBox"><stop offset="0" stop-color="#54d8ff"/><stop offset="1" stop-color="#fff" stop-opacity="0"/></linearGradient></defs><rect width="683" height="768" fill="url(#b)"/><g clip-path="url(#c)"><g transform="translate(-468.07 227.196)" opacity="0.201"><path d="M330,671.976V497.525S593.385,611.95,803.831,619.136c227.558-6.965,266.962-55.935,444.213-121.612,151.469-54.742,302.523-69.767,447.508-65.9s270.65,63,441.911,69.064c302.125-24.415,456.269-147.856,476.681-199.413V736.856L330,737.05Z" transform="translate(-330 -299.242)" opacity="0.7" fill="url(#d)"/><path d="M313,443.979S574.685,561.132,781.591,563.654s286.38-60.456,444.857-119.519,309.135-69.144,447.838-67.158,273.542,63.88,443.967,67.165,446.136-106.99,476.8-198.9" transform="translate(-310.904 -245.24)" fill="none" stroke="#a3a0fb" stroke-width="2"/><g transform="translate(905.504 189.907)" fill="#fff" stroke="#a4a1fb" stroke-width="2"><circle cx="9.803" cy="9.803" r="9.803" stroke="none"/><circle cx="9.803" cy="9.803" r="8.803" fill="none"/></g><g transform="translate(602.859 298.434)" fill="#fff" stroke="#a4a1fb" stroke-width="2"><circle cx="9.803" cy="9.803" r="9.803" stroke="none"/><circle cx="9.803" cy="9.803" r="8.803" fill="none"/></g></g><g transform="translate(-576.496 413.505)" opacity="0.201"><path d="M330,671.976V497.525S593.385,611.95,803.831,619.136c227.558-6.965,266.962-55.935,444.213-121.612,151.469-54.742,302.523-69.767,447.508-65.9s270.65,63,441.911,69.064c302.125-24.415,456.269-147.856,476.681-199.413V736.856L330,737.05Z" transform="translate(-330 -299.242)" opacity="0.7" fill="url(#d)"/><path d="M313,443.979S574.685,561.132,781.591,563.654s286.38-60.456,444.857-119.519,309.135-69.144,447.838-67.158,273.542,63.88,443.967,67.165,446.136-106.99,476.8-198.9" transform="translate(-310.904 -245.24)" fill="none" stroke="#a3a0fb" stroke-width="2"/><g transform="translate(905.504 189.907)" fill="#fff" stroke="#a4a1fb" stroke-width="2"><circle cx="9.803" cy="9.803" r="9.803" stroke="none"/><circle cx="9.803" cy="9.803" r="8.803" fill="none"/></g></g><g transform="translate(-601.296 245.029)" opacity="0.201"><path d="M330,620.815V354.422S587.07,619.273,798.241,629.24c235.615-2.245,237.546-137.494,444.591-211.535,173.332-58.136,305.593,100.448,450.578,104.317s245.046-108.687,442.849-116.507c256.278,11.776,461.922,162.155,477.88,170.24V685.7L330,685.889Z" transform="translate(-328.584 -354.422)" opacity="0.7" fill="url(#f)"/><path d="M312.953,279.164S578.024,548.9,785.187,551.418s278.005-158.926,444.342-213.355,310.633,103.822,449.509,105.807,271.839-118.89,442.474-115.605,365.726,94.721,473.581,166.849" transform="translate(-312.953 -276.908)" fill="none" stroke="#54d8ff" stroke-width="2"/><g transform="translate(1793.132 41.188)" fill="#fff" stroke="#55d8fe" stroke-width="2"><circle cx="9.803" cy="9.803" r="9.803" stroke="none"/><circle cx="9.803" cy="9.803" r="8.803" fill="none"/></g><g transform="translate(974.249 40.527)" fill="#fff" stroke="#55d8fe" stroke-width="2"><circle cx="9.803" cy="9.803" r="9.803" stroke="none"/><circle cx="9.803" cy="9.803" r="8.803" fill="none"/></g></g><g transform="translate(-859.746 333.255)" opacity="0.201"><path d="M330,620.815V354.422S587.07,619.273,798.241,629.24c235.615-2.245,237.546-137.494,444.591-211.535,173.332-58.136,305.593,100.448,450.578,104.317s245.046-108.687,442.849-116.507c256.278,11.776,461.922,162.155,477.88,170.24V685.7L330,685.889Z" transform="translate(-329.438 -354.422)" opacity="0.7" fill="url(#f)"/><path d="M312.953,279.164S578.024,548.9,785.187,551.418s278.005-158.926,444.342-213.355,310.633,103.822,449.509,105.807,271.839-118.89,442.474-115.605,365.726,94.721,473.581,166.849" transform="translate(-312.953 -276.908)" fill="none" stroke="#54d8ff" stroke-width="2"/><g transform="translate(1440.285 145.79)" fill="#fff" stroke="#55d8fe" stroke-width="2"><circle cx="9.803" cy="9.803" r="9.803" stroke="none"/><circle cx="9.803" cy="9.803" r="8.803" fill="none"/></g><g transform="translate(903.954 51.001)" fill="#fff" stroke="#55d8fe" stroke-width="2"><circle cx="9.803" cy="9.803" r="9.803" stroke="none"/><circle cx="9.803" cy="9.803" r="8.803" fill="none"/></g></g></g></svg>